# xmcd CD database file
#
# Track frame offsets:
#	182
#	12510
#	26232
#	39947
#	55047
#	69352
#	83915
#	96847
#	107040
#	119432
#	132202
#	146657
#	159282
#	174140
#	186605
#	197182
#	211080
#	225940
#
# Disc length: 3220 seconds
#
# Revision: 1
# Processed by: cddbd v1.4b42PL1 Copyright (c) Steve Scherf et al.
# Submitted via: Feurio! 1.62 - http://www.feurio.com
#
DISCID=ee0c9212
DTITLE=Tom Astor - Die Freiheit der Starße
DYEAR=1992
DGENRE=
TTITLE0=Trucker sind Partner
TTITLE1=Tausend Träume auf Asphalt
TTITLE2=Irgendwo am Horizont
TTITLE3=Halt Abstand Junge
TTITLE4=Ich bin ein Gefangener der Autobahn
TTITLE5=Devil
TTITLE6=Nur auf der Straße
TTITLE7=Übermüdung tötet
TTITLE8=Zwischen Mitternacht und Morgen
TTITLE9=Bleifuß Joe
TTITLE10=Lieber Herr Verkehrsminister
TTITLE11=Ich bin kein Held
TTITLE12=Das schöne Mädchen von der Autobahn
TTITLE13=Am Rande der Straße
TTITLE14=Highway Helden
TTITLE15=Viel erlebt und viel versäumt
TTITLE16=Truckers Glück
TTITLE17=Abschied
EXTD=made by Hubsi
EXTT0=made by Hubsi
EXTT1=made by Hubsi
EXTT2=made by Hubsi
EXTT3=made by Hubsi
EXTT4=made by Hubsi
EXTT5=made by Hubsi
EXTT6=made by Hubsi
EXTT7=made by Hubsi
EXTT8=made by Hubsi
EXTT9=made by Hubsi
EXTT10=made by Hubsi
EXTT11=made by Hubsi
EXTT12=made by Hubsi
EXTT13=made by Hubsi
EXTT14=made by Hubsi
EXTT15=made by Hubsi
EXTT16=made by Hubsi
EXTT17=made by Hubsi
PLAYORDER=
